<svg width="153" height="154" viewBox="0 0 153 154" fill="none" xmlns="http://www.w3.org/2000/svg">
<rect width="153" height="153.037" rx="25" fill="white"/>
<path d="M119.912 57.9098C112.622 57.5087 105.39 59.4036 99.2325 63.3279C97.7436 61.6322 96.2133 59.9364 94.6003 58.3234L93.4008 57.2067L93.9799 56.7104C96.0025 54.9741 97.4438 52.6593 98.1095 50.0781C98.7751 47.4969 98.633 44.7737 97.7022 42.2759C96.3577 39.4559 94.2232 37.087 91.558 35.4571C88.8928 33.8271 85.8116 33.0062 82.6887 33.0941V41.366C84.1603 41.3455 85.6107 41.718 86.8902 42.445C88.1698 43.1721 89.2323 44.2273 89.968 45.5019C90.6711 47.1563 89.968 48.9761 88.0241 50.92L87.0728 51.7886C82.7587 48.1938 78.0226 45.1383 72.9692 42.6895C62.5052 37.9745 57.1285 40.1665 54.4815 42.6895C53.6749 43.498 53.0293 44.4524 52.5789 45.5019L51.8345 47.694L45.8787 65.6441C50.5937 77.3902 62.0089 98.2768 86.8247 107.293L107.504 100.427C108.202 100.168 108.816 99.7249 109.283 99.1453L110.151 98.4008C116.066 92.4451 112.261 80.9885 104.32 69.8627C109.035 67.1109 114.464 65.8292 119.912 66.1817V57.9098ZM104.237 92.5278H103.989C101.135 94.0581 89.3062 90.1703 75.9057 76.7698C74.4995 75.3636 73.176 73.9987 71.9766 72.6338C71.563 72.1789 71.1907 71.6825 70.7771 71.1862L68.5851 68.5392L67.427 66.9262C66.848 66.1404 66.269 65.3545 65.7726 64.6101C65.2763 63.8656 65.1109 63.5347 64.78 62.997C64.4491 62.4594 63.8701 61.5908 63.4979 60.8877C63.1256 60.1846 62.9602 59.8951 62.712 59.3574C62.4639 58.8197 62.0089 58.1993 61.7608 57.6203C61.5126 57.0413 61.3885 56.669 61.1817 56.2141C60.9749 55.7591 60.7268 55.0974 60.5613 54.5597C60.3959 54.022 60.3545 53.7739 60.2718 53.3603C60.1891 52.9467 60.0237 52.3676 59.9409 51.954C59.9211 51.6234 59.9211 51.292 59.9409 50.9614C59.9003 50.6041 59.9003 50.2433 59.9409 49.886L60.3959 48.6039C61.099 47.8594 64.1596 47.6526 69.6191 50.1342C73.2676 51.887 76.7198 54.0221 79.9176 56.5036C78.1743 57.273 76.3155 57.7482 74.4168 57.9098V66.1817C78.8107 65.9324 83.0741 64.5966 86.8247 62.2939L88.8513 64.1965C90.6711 65.9749 92.2841 67.7534 93.7731 69.4491C91.2793 73.7015 90.2887 78.6691 90.9606 83.5528L99.2325 81.9397C98.953 80.3805 98.953 78.784 99.2325 77.2247C104.568 85.3726 105.561 91.2456 104.237 92.5278V92.5278ZM42.9835 74.4536L33.7603 102.165C33.0946 104.199 32.9198 106.362 33.2503 108.477C33.5807 110.592 34.4069 112.599 35.6614 114.333C36.9159 116.068 38.5631 117.481 40.4682 118.457C42.3734 119.433 44.4825 119.944 46.6232 119.949C48.0304 119.936 49.4264 119.698 50.7591 119.246L77.7256 110.271C62.5058 102.498 50.289 89.9032 42.9835 74.4536V74.4536Z" fill="black"/>
</svg>
